<svg id="svg" version="1.1" width="400" height="324.9146757679181" viewBox="0 0 400 324.9146757679181" xmlns="http://www.w3.org/2000/svg" xmlns:xlink="http://www.w3.org/1999/xlink" ><g id="svgg"><path id="path0" d="M184.165 72.372 C 184.749 72.444,185.626 72.443,186.115 72.369 C 186.603 72.295,186.125 72.235,185.053 72.237 C 183.981 72.239,183.581 72.300,184.165 72.372 M213.891 72.373 C 214.561 72.443,215.658 72.443,216.328 72.373 C 216.998 72.303,216.450 72.246,215.110 72.246 C 213.769 72.246,213.221 72.303,213.891 72.373 M147.279 93.582 C 147.352 93.851,147.765 94.097,148.198 94.130 C 148.818 94.177,148.847 94.152,148.335 94.011 C 147.977 93.913,147.564 93.666,147.416 93.464 C 147.239 93.220,147.193 93.260,147.279 93.582 M251.828 93.795 C 251.380 94.031,251.234 94.223,251.503 94.223 C 252.063 94.222,253.022 93.680,252.793 93.492 C 252.709 93.423,252.275 93.559,251.828 93.795 M104.293 122.850 L 103.168 123.849 104.387 122.974 C 105.463 122.202,105.814 121.852,105.512 121.852 C 105.460 121.852,104.912 122.301,104.293 122.850 M105.747 160.926 L 104.793 161.982 105.849 161.028 C 106.430 160.503,106.905 160.028,106.905 159.972 C 106.905 159.721,106.637 159.942,105.747 160.926 M212.309 181.803 C 212.310 183.948,212.362 184.783,212.426 183.659 C 212.490 182.535,212.489 180.780,212.425 179.760 C 212.361 178.739,212.309 179.659,212.309 181.803 M68.305 192.751 C 68.242 195.682,68.517 196.800,69.077 195.893 C 69.221 195.660,69.172 195.600,68.949 195.737 C 68.693 195.895,68.554 195.021,68.480 192.782 L 68.373 189.602 68.305 192.751 M331.498 192.789 C 331.452 195.241,331.344 195.920,331.032 195.733 C 330.798 195.592,330.832 195.744,331.113 196.091 C 331.667 196.777,331.914 194.674,331.677 191.296 C 331.608 190.313,331.533 190.941,331.498 192.789 M94.986 198.863 C 94.986 200.024,95.045 200.500,95.117 199.919 C 95.189 199.338,95.189 198.387,95.117 197.807 C 95.045 197.226,94.986 197.701,94.986 198.863 M80.036 211.373 C 80.038 212.445,80.098 212.845,80.171 212.261 C 80.243 211.677,80.241 210.799,80.167 210.311 C 80.093 209.823,80.034 210.301,80.036 211.373 M313.566 225.020 C 314.172 225.646,314.742 226.158,314.831 226.158 C 314.920 226.158,314.497 225.646,313.891 225.020 C 313.285 224.395,312.716 223.883,312.626 223.883 C 312.537 223.883,312.960 224.395,313.566 225.020 " stroke="none" fill="#000000" fill-rule="evenodd"></path><path id="path1" d="M105.118 32.176 C 104.377 32.476,100.850 36.085,98.932 38.505 C 98.224 39.399,97.570 40.203,97.480 40.292 C 97.389 40.382,96.885 41.040,96.360 41.755 C 95.834 42.470,95.323 43.128,95.224 43.217 C 95.125 43.306,94.848 43.759,94.609 44.224 C 94.371 44.688,93.859 45.443,93.473 45.901 C 91.572 48.155,84.159 61.751,84.159 62.983 C 84.159 63.181,83.867 63.864,83.509 64.500 C 83.152 65.137,82.859 65.909,82.857 66.216 C 82.856 66.524,82.637 67.194,82.370 67.706 C 82.103 68.218,81.885 68.912,81.885 69.249 C 81.885 69.586,81.758 69.862,81.602 69.862 C 81.447 69.862,81.243 70.410,81.148 71.080 C 81.053 71.751,80.792 72.738,80.568 73.274 C 80.344 73.810,80.121 74.443,80.073 74.680 C 80.024 74.917,79.874 75.356,79.739 75.655 C 79.604 75.954,79.456 76.418,79.410 76.686 C 79.365 76.954,79.163 77.977,78.961 78.960 C 78.760 79.943,78.514 81.259,78.414 81.885 C 78.315 82.510,78.132 83.168,78.007 83.347 C 77.883 83.526,77.743 84.257,77.696 84.972 C 77.649 85.686,77.467 87.587,77.292 89.196 C 76.759 94.085,76.581 102.649,76.954 105.443 C 77.145 106.872,77.469 109.578,77.676 111.454 C 77.882 113.331,78.125 115.524,78.215 116.328 C 78.306 117.132,78.492 117.937,78.629 118.115 C 78.766 118.294,78.994 119.171,79.135 120.065 C 79.414 121.834,79.418 121.851,79.891 123.396 C 80.069 123.976,80.147 124.452,80.063 124.452 C 79.980 124.452,80.072 124.750,80.267 125.115 C 80.692 125.908,79.800 127.490,77.054 130.813 C 76.894 131.006,76.359 131.810,75.864 132.601 C 75.368 133.391,74.217 135.207,73.306 136.637 C 71.029 140.210,70.936 140.364,70.182 141.836 C 69.816 142.551,69.202 143.647,68.818 144.273 C 67.654 146.168,63.038 155.441,63.038 155.883 C 63.038 156.110,62.892 156.296,62.713 156.296 C 62.535 156.296,62.388 156.603,62.388 156.978 C 62.388 157.353,62.154 158.194,61.868 158.846 C 61.581 159.499,61.238 160.325,61.105 160.682 C 60.972 161.040,60.487 162.136,60.028 163.119 C 59.570 164.102,59.011 165.565,58.787 166.369 C 58.563 167.173,58.258 167.970,58.109 168.140 C 57.961 168.310,57.839 168.755,57.839 169.131 C 57.839 169.506,57.709 169.952,57.550 170.122 C 57.295 170.394,57.111 171.171,56.319 175.305 C 56.217 175.841,56.008 176.437,55.856 176.629 C 55.704 176.821,55.483 178.063,55.365 179.391 C 55.248 180.718,55.000 181.995,54.814 182.229 C 54.337 182.833,54.125 198.995,54.550 202.437 C 55.022 206.263,55.680 209.813,55.971 210.102 C 56.105 210.235,56.214 210.614,56.214 210.944 C 56.214 211.274,56.343 211.798,56.499 212.108 C 56.656 212.419,57.251 213.916,57.823 215.435 C 58.394 216.954,59.290 219.058,59.813 220.111 C 60.336 221.163,60.764 222.223,60.764 222.466 C 60.764 222.709,60.910 222.908,61.089 222.908 C 61.267 222.908,61.413 223.192,61.413 223.539 C 61.413 223.886,61.560 224.260,61.738 224.370 C 61.917 224.481,62.063 224.772,62.063 225.017 C 62.063 225.262,62.481 226.386,62.992 227.516 C 63.503 228.645,64.011 229.825,64.120 230.138 C 64.499 231.228,65.928 230.342,65.952 229.001 C 65.958 228.688,66.072 228.431,66.206 228.429 C 66.340 228.428,66.734 227.517,67.080 226.406 C 67.427 225.295,67.886 224.017,68.101 223.566 C 68.316 223.115,68.739 222.161,69.041 221.446 C 69.344 220.731,69.707 219.922,69.848 219.648 C 69.989 219.374,70.207 218.681,70.333 218.108 C 70.459 217.536,70.697 216.983,70.862 216.881 C 71.027 216.779,71.162 216.412,71.162 216.065 C 71.162 215.718,71.296 215.435,71.461 215.435 C 71.625 215.435,71.856 214.996,71.974 214.460 C 72.092 213.924,72.307 213.485,72.452 213.485 C 72.597 213.485,72.799 213.152,72.902 212.745 C 73.288 211.205,78.473 206.336,79.727 206.336 C 79.999 206.336,80.070 209.474,79.993 218.197 C 79.865 232.724,79.107 232.010,86.720 224.533 C 88.881 222.411,92.445 219.143,94.811 217.114 C 96.038 216.062,100.240 214.114,102.518 213.542 C 107.364 212.324,118.474 212.893,120.715 214.474 C 120.894 214.600,121.731 214.803,122.576 214.925 C 123.420 215.047,124.197 215.285,124.301 215.453 C 124.405 215.622,124.774 215.760,125.121 215.760 C 125.468 215.760,125.751 215.906,125.751 216.084 C 125.751 216.263,126.034 216.409,126.379 216.409 C 126.902 216.409,129.603 217.718,136.962 221.537 C 138.073 222.113,141.753 224.540,141.998 224.857 C 142.088 224.973,142.380 225.164,142.648 225.282 C 142.916 225.401,144.890 226.737,147.035 228.253 C 149.180 229.769,152.177 231.855,153.696 232.889 C 155.215 233.923,156.531 234.849,156.621 234.948 C 156.710 235.047,157.335 235.463,158.010 235.874 C 158.685 236.284,159.416 236.788,159.635 236.994 C 159.854 237.200,161.335 238.242,162.927 239.311 C 164.519 240.380,165.982 241.412,166.177 241.604 C 166.372 241.796,167.035 242.238,167.651 242.585 C 168.727 243.192,169.598 243.812,170.386 244.529 C 170.589 244.714,171.308 245.204,171.983 245.617 C 172.658 246.030,173.395 246.536,173.621 246.742 C 174.115 247.191,175.122 247.848,175.792 248.158 C 176.060 248.282,176.426 248.500,176.604 248.642 C 176.783 248.785,177.880 249.592,179.041 250.436 C 180.203 251.280,181.227 252.048,181.316 252.143 C 181.405 252.238,181.726 252.461,182.029 252.640 C 182.886 253.146,189.257 257.487,189.439 257.690 C 190.839 259.246,191.219 259.301,200.429 259.301 C 205.257 259.301,209.255 259.191,209.315 259.055 C 209.500 258.635,212.096 256.702,212.476 256.702 C 212.673 256.702,212.835 256.565,212.835 256.399 C 212.835 256.232,213.102 256.011,213.428 255.908 C 213.754 255.804,214.305 255.465,214.654 255.155 C 215.002 254.844,216.574 253.728,218.145 252.676 C 219.717 251.623,221.176 250.590,221.387 250.380 C 221.598 250.169,222.210 249.716,222.746 249.372 C 223.282 249.028,223.867 248.632,224.045 248.493 C 224.224 248.354,225.321 247.622,226.483 246.866 C 227.644 246.110,228.643 245.382,228.703 245.248 C 228.763 245.114,229.018 245.004,229.272 245.004 C 229.525 245.004,229.732 244.889,229.732 244.749 C 229.732 244.609,230.165 244.238,230.695 243.925 C 231.225 243.613,231.846 243.176,232.076 242.955 C 232.306 242.734,233.298 242.048,234.281 241.430 C 235.264 240.812,236.254 240.128,236.480 239.911 C 236.706 239.693,237.474 239.188,238.186 238.788 C 238.898 238.388,239.480 237.941,239.480 237.796 C 239.480 237.650,239.687 237.530,239.940 237.530 C 240.194 237.530,240.449 237.403,240.509 237.246 C 240.569 237.090,241.860 236.125,243.379 235.103 C 248.015 231.982,250.632 230.064,250.799 229.666 C 250.858 229.523,251.047 229.407,251.217 229.407 C 251.497 229.407,256.280 226.193,260.926 222.883 C 261.909 222.183,262.884 221.609,263.092 221.609 C 263.301 221.609,263.520 221.499,263.580 221.365 C 263.744 220.996,270.530 217.709,271.128 217.709 C 271.414 217.709,271.649 217.563,271.649 217.384 C 271.649 217.206,271.792 217.059,271.966 217.059 C 272.140 217.059,273.218 216.631,274.362 216.107 C 275.506 215.583,277.008 215.061,277.701 214.946 C 278.394 214.832,279.253 214.615,279.610 214.465 C 280.999 213.882,288.480 212.743,290.333 212.833 C 293.857 213.004,297.954 213.481,298.575 213.792 C 298.867 213.939,299.472 214.200,299.919 214.372 C 301.971 215.162,304.648 216.649,305.624 217.542 C 306.214 218.081,307.616 219.326,308.741 220.309 C 309.866 221.292,312.314 223.558,314.181 225.345 C 316.048 227.132,317.931 228.932,318.365 229.343 C 320.080 230.969,320.105 230.820,320.075 219.357 C 320.060 213.561,319.963 208.480,319.859 208.066 C 319.421 206.320,320.423 206.033,322.125 207.416 C 322.604 207.805,323.549 208.557,324.226 209.087 C 325.590 210.156,327.214 212.268,327.214 212.975 C 327.214 213.226,327.323 213.480,327.457 213.539 C 327.798 213.690,328.442 215.105,330.317 219.821 C 331.409 222.567,332.368 224.833,332.742 225.549 C 332.894 225.840,333.117 226.607,333.239 227.255 C 333.360 227.902,333.590 228.432,333.749 228.432 C 333.907 228.432,334.042 228.688,334.048 229.001 C 334.072 230.357,335.984 231.328,335.988 229.986 C 335.989 229.757,336.344 228.872,336.776 228.019 C 337.209 227.166,337.658 226.034,337.775 225.504 C 337.891 224.974,338.122 224.457,338.287 224.355 C 338.452 224.253,338.587 223.898,338.587 223.566 C 338.587 223.234,338.702 222.914,338.842 222.854 C 339.100 222.745,340.861 219.289,340.861 218.892 C 340.861 218.774,341.140 218.057,341.480 217.299 C 341.820 216.542,342.345 215.191,342.646 214.297 C 342.947 213.404,343.327 212.419,343.489 212.108 C 343.652 211.798,343.786 211.274,343.786 210.944 C 343.786 210.614,343.895 210.235,344.029 210.102 C 344.265 209.868,344.748 207.491,345.457 203.087 C 346.132 198.885,345.870 183.950,345.089 182.128 C 344.935 181.771,344.718 180.455,344.606 179.204 C 344.493 177.953,344.263 176.790,344.093 176.621 C 343.924 176.451,343.786 175.838,343.786 175.259 C 343.786 174.680,343.639 174.115,343.461 174.005 C 343.282 173.894,343.136 173.460,343.136 173.040 C 343.136 172.620,342.697 170.934,342.161 169.293 C 341.625 167.653,341.186 166.109,341.186 165.862 C 341.186 165.615,340.894 164.893,340.536 164.257 C 340.179 163.620,339.886 162.885,339.886 162.622 C 339.886 162.359,339.740 162.145,339.561 162.145 C 339.383 162.145,339.236 161.779,339.236 161.332 C 339.236 160.885,339.090 160.520,338.911 160.520 C 338.733 160.520,338.587 160.317,338.587 160.070 C 338.587 159.822,338.368 159.201,338.101 158.689 C 337.834 158.177,337.615 157.429,337.614 157.027 C 337.613 156.625,337.465 156.296,337.287 156.296 C 337.108 156.296,336.961 156.113,336.960 155.890 C 336.959 155.666,336.375 154.314,335.662 152.884 C 334.949 151.454,334.365 150.114,334.364 149.905 C 334.363 149.697,334.253 149.477,334.119 149.418 C 333.985 149.358,333.364 148.286,332.740 147.035 C 332.116 145.784,331.531 144.687,331.440 144.598 C 331.177 144.338,330.527 143.238,329.809 141.836 C 329.443 141.121,328.775 139.951,328.325 139.236 C 327.874 138.522,327.335 137.535,327.126 137.043 C 326.917 136.552,326.632 136.149,326.493 136.149 C 326.353 136.149,326.239 135.930,326.239 135.662 C 326.239 135.394,326.129 135.173,325.995 135.172 C 325.861 135.170,325.168 134.256,324.455 133.141 C 323.743 132.026,323.045 130.967,322.905 130.788 C 319.557 126.507,319.296 125.705,320.315 122.827 C 320.591 122.048,320.710 121.465,320.927 119.821 C 321.039 118.972,321.256 118.278,321.410 118.278 C 321.564 118.278,321.690 117.555,321.690 116.672 C 321.690 115.789,321.804 114.996,321.944 114.910 C 322.083 114.824,322.237 114.267,322.286 113.672 C 322.334 113.078,322.531 110.910,322.724 108.855 C 323.481 100.775,322.995 87.823,321.723 82.210 C 321.541 81.405,321.227 79.870,321.025 78.798 C 320.613 76.614,320.563 76.401,320.307 75.711 C 320.208 75.443,319.804 74.200,319.409 72.949 C 319.014 71.698,318.562 70.420,318.403 70.110 C 318.245 69.800,318.115 69.260,318.115 68.911 C 318.115 68.561,317.980 68.192,317.815 68.090 C 317.650 67.988,317.413 67.436,317.287 66.863 C 317.070 65.879,316.954 65.584,316.166 64.017 C 315.987 63.662,315.841 63.210,315.841 63.011 C 315.841 62.813,315.349 61.605,314.747 60.326 C 314.146 59.048,313.384 57.417,313.054 56.702 C 312.724 55.987,312.279 55.223,312.066 55.003 C 311.853 54.784,311.203 53.614,310.623 52.404 C 310.043 51.193,309.356 49.955,309.096 49.652 C 308.836 49.349,308.017 48.159,307.277 47.009 C 305.584 44.379,303.322 41.149,302.769 40.571 C 302.537 40.328,301.582 39.180,300.647 38.018 C 296.108 32.378,294.448 31.397,291.795 32.789 C 291.527 32.930,290.504 33.231,289.521 33.459 C 288.538 33.687,287.441 33.990,287.084 34.133 C 286.726 34.276,285.703 34.637,284.809 34.935 C 283.916 35.232,282.930 35.609,282.620 35.772 C 282.310 35.935,281.911 36.068,281.733 36.068 C 281.177 36.068,275.777 38.718,274.353 39.690 C 273.605 40.200,272.838 40.617,272.647 40.617 C 272.455 40.617,272.299 40.729,272.299 40.865 C 272.299 41.113,271.336 41.700,270.268 42.103 C 269.955 42.221,269.699 42.447,269.699 42.605 C 269.699 42.763,269.480 42.892,269.212 42.892 C 268.944 42.892,268.725 43.007,268.725 43.147 C 268.725 43.287,268.249 43.681,267.669 44.022 C 267.088 44.363,265.958 45.236,265.158 45.961 C 261.481 49.292,259.116 51.540,258.856 51.951 C 258.700 52.197,257.676 53.375,256.581 54.569 C 255.486 55.764,254.005 57.609,253.290 58.671 C 252.575 59.732,251.908 60.674,251.808 60.764 C 251.365 61.159,247.929 66.613,247.929 66.920 C 247.929 67.108,247.782 67.262,247.604 67.262 C 247.425 67.262,247.302 67.372,247.330 67.506 C 247.391 67.793,246.920 68.978,246.652 69.212 C 246.318 69.504,244.679 72.949,244.679 73.360 C 244.679 73.581,244.533 73.761,244.354 73.761 C 244.175 73.761,244.029 73.951,244.029 74.184 C 244.029 74.416,243.846 75.010,243.623 75.503 C 243.139 76.572,242.637 76.561,237.043 75.362 C 236.149 75.170,234.760 74.936,233.956 74.840 C 233.152 74.744,232.348 74.561,232.169 74.432 C 231.990 74.302,231.272 74.166,230.572 74.128 C 229.873 74.090,229.176 73.982,229.023 73.887 C 228.721 73.700,228.199 73.610,225.508 73.276 C 224.525 73.154,223.209 72.988,222.584 72.907 C 216.593 72.131,190.762 71.630,186.840 72.214 C 186.036 72.334,183.842 72.521,181.966 72.631 C 177.553 72.889,176.205 73.018,175.885 73.216 C 175.742 73.305,174.894 73.415,174.002 73.460 C 173.110 73.506,172.148 73.658,171.863 73.799 C 171.579 73.939,170.702 74.085,169.914 74.123 C 169.126 74.161,168.335 74.300,168.156 74.431 C 167.977 74.562,167.100 74.746,166.206 74.839 C 165.313 74.933,163.851 75.166,162.957 75.357 C 157.043 76.621,156.665 76.573,155.631 74.411 C 155.161 73.428,154.314 71.659,153.749 70.479 C 153.184 69.299,152.721 68.166,152.721 67.961 C 152.721 67.755,152.575 67.587,152.396 67.587 C 152.218 67.587,152.071 67.434,152.071 67.247 C 152.071 66.342,145.330 56.659,142.807 53.940 C 138.590 49.395,136.654 47.441,136.367 47.441 C 136.190 47.441,135.666 47.020,135.204 46.505 C 133.931 45.089,132.011 43.698,126.726 40.365 C 124.092 38.703,118.846 36.068,118.171 36.068 C 117.893 36.068,117.584 35.935,117.483 35.772 C 117.382 35.608,116.716 35.376,116.003 35.256 C 115.290 35.135,114.624 34.903,114.524 34.740 C 114.423 34.577,114.013 34.444,113.612 34.444 C 113.212 34.444,112.745 34.321,112.575 34.171 C 112.405 34.021,111.419 33.704,110.383 33.466 C 109.347 33.227,108.424 32.911,108.333 32.763 C 108.241 32.615,107.766 32.494,107.276 32.494 C 106.786 32.494,106.246 32.363,106.076 32.203 C 105.907 32.043,105.475 32.031,105.118 32.176 M110.804 48.837 C 111.251 49.066,112.348 49.515,113.241 49.835 C 115.443 50.623,116.154 50.967,118.527 52.392 C 119.647 53.065,120.654 53.615,120.765 53.615 C 121.035 53.615,127.886 59.080,128.960 60.153 C 129.429 60.621,130.359 61.644,131.027 62.427 C 131.694 63.210,132.718 64.384,133.301 65.036 C 135.025 66.961,135.265 67.289,137.189 70.349 C 138.899 73.069,141.624 77.935,142.290 79.458 C 142.448 79.821,142.868 80.771,143.223 81.570 C 143.578 82.369,144.117 83.753,144.421 84.647 C 144.725 85.540,145.098 86.564,145.250 86.921 C 145.402 87.279,145.767 88.375,146.060 89.358 C 146.354 90.341,146.721 91.438,146.875 91.795 C 147.030 92.153,147.251 92.781,147.366 93.192 C 147.578 93.947,149.968 93.988,150.934 93.253 C 151.275 92.994,154.007 92.441,154.427 92.547 C 154.561 92.580,154.671 92.461,154.671 92.283 C 154.671 92.104,155.174 91.958,155.789 91.958 C 156.404 91.958,156.987 91.829,157.085 91.671 C 157.182 91.513,158.105 91.280,159.135 91.152 C 160.165 91.025,161.154 90.807,161.332 90.668 C 161.511 90.528,162.096 90.331,162.632 90.228 C 163.168 90.125,164.411 89.881,165.394 89.687 C 166.377 89.492,167.620 89.281,168.156 89.218 C 168.692 89.155,169.643 89.014,170.268 88.906 C 170.894 88.797,171.795 88.647,172.270 88.573 C 172.746 88.498,173.431 88.279,173.793 88.085 C 174.717 87.590,176.339 87.648,176.545 88.183 C 176.640 88.430,177.642 89.331,178.773 90.186 C 180.748 91.679,183.871 94.672,184.890 96.049 C 189.325 102.041,189.841 103.720,190.129 113.079 C 190.379 121.190,190.947 128.024,191.411 128.497 C 191.578 128.667,191.714 129.142,191.714 129.553 C 191.714 129.964,191.860 130.301,192.039 130.301 C 192.218 130.301,192.364 130.573,192.364 130.905 C 192.364 131.238,192.729 132.048,193.176 132.707 C 193.623 133.365,193.989 134.007,193.989 134.133 C 193.993 135.552,199.176 137.267,201.885 136.746 C 207.522 135.662,209.456 130.656,209.897 116.003 C 210.231 104.929,211.448 100.507,215.353 96.185 C 215.755 95.740,216.084 95.258,216.084 95.113 C 216.084 94.812,219.458 91.628,220.265 91.166 C 220.557 90.999,220.983 90.677,221.210 90.450 C 223.609 88.064,224.967 87.421,226.207 88.085 C 226.569 88.279,227.254 88.498,227.730 88.573 C 228.205 88.647,229.106 88.797,229.732 88.906 C 230.357 89.014,231.308 89.155,231.844 89.218 C 232.743 89.324,234.626 89.673,237.043 90.181 C 237.579 90.294,238.237 90.469,238.505 90.571 C 238.773 90.672,239.212 90.802,239.480 90.859 C 239.748 90.916,240.699 91.125,241.592 91.322 C 242.486 91.520,243.692 91.760,244.273 91.855 C 244.854 91.951,245.329 92.159,245.329 92.318 C 245.329 92.477,245.439 92.583,245.573 92.552 C 246.042 92.445,249.069 93.017,249.396 93.275 C 250.040 93.784,252.213 93.771,252.477 93.258 C 253.023 92.195,253.451 91.066,253.956 89.358 C 254.247 88.375,254.603 87.279,254.747 86.921 C 254.891 86.564,255.257 85.540,255.561 84.647 C 257.832 77.967,263.608 68.235,268.180 63.385 C 268.926 62.593,269.829 61.544,270.187 61.054 C 270.946 60.014,278.508 53.942,279.935 53.226 C 281.471 52.457,283.169 51.518,283.347 51.340 C 283.571 51.115,284.910 50.512,286.271 50.022 C 286.897 49.797,288.046 49.333,288.824 48.991 L 290.240 48.368 291.034 49.113 C 291.470 49.523,292.362 50.667,293.016 51.656 C 293.670 52.644,294.324 53.599,294.469 53.777 C 294.904 54.313,298.354 59.889,298.793 60.764 C 300.545 64.262,300.894 65.043,300.894 65.473 C 300.894 65.742,301.005 65.963,301.142 65.963 C 301.430 65.963,302.518 68.361,302.518 68.994 C 302.518 69.229,302.957 70.327,303.493 71.434 C 304.029 72.541,304.468 73.592,304.468 73.771 C 304.468 73.949,304.601 74.349,304.763 74.659 C 305.248 75.587,306.093 78.653,306.093 79.485 C 306.093 79.911,306.239 80.260,306.418 80.260 C 306.596 80.260,306.742 80.736,306.742 81.318 C 306.742 81.900,306.895 82.887,307.081 83.511 C 307.267 84.136,307.571 85.743,307.757 87.084 C 308.170 90.056,308.390 92.353,308.177 91.470 C 308.091 91.113,307.793 90.057,307.516 89.123 C 307.239 88.190,306.979 87.240,306.939 87.011 C 306.710 85.722,306.477 85.169,303.619 79.123 C 302.604 76.976,301.193 74.634,300.812 74.465 C 300.678 74.406,300.569 74.184,300.569 73.972 C 300.569 73.761,299.911 72.835,299.106 71.916 C 298.302 70.997,297.644 70.085,297.644 69.891 C 297.644 68.600,291.656 71.627,287.735 74.898 C 286.015 76.333,282.458 79.922,281.316 81.373 C 280.914 81.884,280.123 82.865,279.558 83.552 C 278.993 84.239,278.336 85.242,278.098 85.780 C 277.859 86.318,277.554 86.759,277.420 86.759 C 277.286 86.759,276.867 87.417,276.489 88.221 C 276.111 89.025,275.672 89.683,275.513 89.683 C 275.354 89.683,275.223 89.851,275.223 90.057 C 275.223 90.263,274.875 91.176,274.450 92.088 C 273.054 95.077,272.624 96.113,272.624 96.479 C 272.624 96.678,272.478 97.131,272.299 97.486 C 272.120 97.841,271.831 98.418,271.655 98.767 C 271.480 99.117,271.241 100.031,271.123 100.798 C 271.006 101.566,270.779 102.361,270.618 102.566 C 269.210 104.359,269.518 106.997,271.228 107.794 C 272.085 108.194,273.298 108.835,273.924 109.220 C 274.549 109.604,276.231 110.538,277.660 111.296 C 282.242 113.723,283.523 114.491,288.563 117.836 C 289.198 118.258,289.893 118.603,290.107 118.603 C 290.321 118.603,290.496 118.749,290.496 118.928 C 290.496 119.106,290.648 119.253,290.834 119.253 C 291.179 119.253,294.059 121.276,295.887 122.801 C 296.440 123.262,297.232 123.859,297.648 124.127 C 299.845 125.543,304.516 130.031,305.655 131.819 C 305.977 132.324,306.324 132.811,306.427 132.900 C 306.530 132.989,307.557 134.377,308.709 135.983 C 310.757 138.837,311.187 139.403,312.348 140.776 C 312.660 141.145,312.916 141.645,312.916 141.886 C 312.916 142.126,313.045 142.323,313.203 142.323 C 313.361 142.323,313.573 142.579,313.673 142.892 C 313.774 143.205,314.301 144.192,314.844 145.085 C 315.388 145.979,315.933 146.929,316.057 147.197 C 316.180 147.465,316.372 147.758,316.483 147.847 C 316.821 148.118,318.571 151.137,319.592 153.209 C 320.120 154.281,320.662 155.207,320.796 155.267 C 320.930 155.326,321.040 155.531,321.040 155.722 C 321.040 155.912,321.392 156.814,321.824 157.726 C 322.886 159.972,324.424 163.343,325.064 164.825 C 325.353 165.496,325.808 166.541,326.076 167.149 C 326.344 167.757,326.564 168.417,326.564 168.616 C 326.564 168.969,326.727 169.360,327.488 170.832 C 327.694 171.232,327.864 171.760,327.864 172.006 C 327.864 172.251,328.207 173.536,328.628 174.861 C 329.048 176.185,329.501 177.997,329.635 178.886 C 329.768 179.776,329.995 180.723,330.138 180.991 C 330.282 181.260,330.441 182.064,330.492 182.779 C 330.542 183.493,330.689 184.224,330.816 184.403 C 331.103 184.804,331.358 187.385,331.634 192.678 L 331.846 196.728 330.586 195.672 C 328.778 194.157,328.559 193.989,328.388 193.989 C 328.305 193.989,327.165 193.498,325.856 192.899 C 324.548 192.299,322.600 191.560,321.527 191.256 C 320.455 190.952,319.139 190.579,318.603 190.427 C 316.930 189.953,315.457 189.786,312.316 189.715 L 309.280 189.646 308.068 190.924 C 305.696 193.426,305.548 193.811,305.219 198.299 C 305.081 200.174,304.936 200.741,304.653 200.507 C 304.444 200.333,303.656 200.092,302.901 199.972 C 302.146 199.851,301.451 199.625,301.355 199.470 C 301.259 199.315,300.701 199.188,300.116 199.188 C 299.531 199.188,298.943 199.078,298.809 198.944 C 298.520 198.655,298.378 198.631,296.620 198.578 L 295.270 198.538 296.051 197.868 C 297.776 196.389,298.191 196.067,299.435 195.241 C 301.242 194.042,303.215 192.101,304.105 190.649 C 304.518 189.974,305.025 189.243,305.231 189.025 C 308.513 185.539,307.904 174.850,304.171 170.404 C 303.709 169.854,303.037 169.025,302.678 168.563 C 302.319 168.101,300.704 166.577,299.089 165.177 C 297.474 163.777,295.755 162.235,295.270 161.749 C 294.784 161.264,293.329 160.021,292.035 158.987 C 290.742 157.954,289.634 156.998,289.575 156.864 C 289.515 156.730,289.277 156.621,289.046 156.621 C 288.815 156.621,288.433 156.389,288.199 156.107 C 287.525 155.295,281.166 150.447,280.775 150.447 C 280.581 150.447,280.422 150.301,280.422 150.122 C 280.422 149.943,280.277 149.797,280.098 149.797 C 279.726 149.797,276.415 147.493,276.252 147.120 C 276.193 146.984,276.003 146.872,275.831 146.872 C 275.562 146.872,274.300 146.146,271.468 144.363 C 271.121 144.145,270.325 143.714,269.699 143.405 C 269.074 143.097,268.455 142.691,268.323 142.503 C 268.192 142.315,268.082 142.268,268.080 142.398 C 268.077 142.528,267.600 142.357,267.019 142.016 C 265.457 141.101,262.225 139.536,260.926 139.064 C 260.301 138.837,259.350 138.467,258.814 138.241 C 257.826 137.826,255.653 137.157,253.290 136.540 C 252.575 136.354,251.332 136.021,250.528 135.802 C 247.239 134.904,233.756 134.937,232.835 135.845 C 232.665 136.013,232.199 136.149,231.798 136.149 C 231.398 136.149,230.987 136.284,230.885 136.449 C 230.783 136.614,230.237 136.851,229.671 136.975 C 225.191 137.959,217.163 144.976,213.305 151.279 L 212.124 153.209 212.275 169.643 C 212.372 180.122,212.549 186.303,212.765 186.702 C 213.697 188.426,221.043 194.639,222.149 194.639 C 222.388 194.639,222.583 194.757,222.583 194.903 C 222.583 195.048,223.095 195.368,223.721 195.613 C 224.346 195.859,224.858 196.178,224.858 196.324 C 224.858 196.469,225.031 196.588,225.243 196.588 C 225.454 196.588,226.222 196.861,226.949 197.194 C 227.675 197.527,229.001 198.053,229.894 198.362 C 230.788 198.671,231.958 199.108,232.494 199.332 C 233.030 199.556,233.933 199.922,234.501 200.143 C 238.834 201.836,236.958 205.237,226.973 213.792 C 225.420 215.122,223.176 216.921,221.986 217.789 C 217.623 220.970,217.059 221.414,217.059 221.671 C 217.059 221.815,216.903 221.933,216.711 221.933 C 216.520 221.933,216.178 222.116,215.952 222.340 C 215.727 222.563,215.189 222.998,214.757 223.307 C 214.326 223.616,212.387 225.005,210.449 226.394 C 201.261 232.979,201.788 232.656,200.218 232.656 C 199.126 232.656,198.339 232.390,197.104 231.602 C 195.354 230.485,195.270 230.423,193.064 228.615 C 192.288 227.978,191.543 227.457,191.409 227.457 C 191.275 227.457,190.740 227.092,190.221 226.645 C 189.702 226.199,189.178 225.833,189.057 225.833 C 188.935 225.833,188.643 225.647,188.407 225.420 C 188.170 225.193,187.173 224.430,186.190 223.725 C 185.207 223.019,184.330 222.364,184.240 222.269 C 184.151 222.174,182.323 220.780,180.179 219.172 C 172.887 213.703,167.369 208.777,165.049 205.666 C 162.299 201.976,163.120 200.861,170.431 198.357 C 171.324 198.050,172.650 197.527,173.376 197.194 C 174.103 196.861,174.871 196.588,175.082 196.588 C 175.294 196.588,175.467 196.442,175.467 196.263 C 175.467 196.084,175.686 195.938,175.955 195.938 C 176.223 195.938,176.442 195.792,176.442 195.613 C 176.442 195.435,176.672 195.288,176.954 195.288 C 177.957 195.288,182.041 192.313,184.905 189.495 L 187.815 186.632 187.815 169.483 L 187.815 152.335 185.889 149.668 C 183.812 146.791,179.258 141.971,177.417 140.702 C 176.791 140.270,176.206 139.837,176.117 139.739 C 175.545 139.113,170.687 136.799,169.945 136.799 C 169.586 136.799,169.293 136.670,169.293 136.511 C 169.293 136.353,168.891 136.143,168.400 136.045 C 167.908 135.947,166.775 135.701,165.881 135.498 C 164.988 135.295,161.761 135.138,158.710 135.149 C 152.946 135.170,151.559 135.350,145.898 136.808 C 145.093 137.016,144.289 137.222,144.110 137.268 C 143.464 137.433,141.873 138.056,140.000 138.878 C 139.347 139.165,138.674 139.399,138.505 139.399 C 138.335 139.399,137.261 139.900,136.117 140.512 C 134.973 141.125,132.941 142.172,131.600 142.839 C 130.260 143.507,129.090 144.139,129.001 144.244 C 128.720 144.575,126.927 145.589,125.995 145.945 C 125.504 146.133,125.102 146.408,125.102 146.557 C 125.102 146.707,124.846 146.910,124.533 147.009 C 124.220 147.109,123.583 147.544,123.118 147.975 C 122.653 148.407,121.702 149.053,121.006 149.411 C 119.762 150.050,114.298 154.129,112.763 155.565 C 112.333 155.967,111.885 156.296,111.767 156.296 C 111.650 156.296,111.202 156.601,110.773 156.973 C 110.343 157.346,109.582 157.967,109.080 158.354 C 107.800 159.342,106.919 160.085,105.605 161.283 C 104.980 161.853,103.152 163.471,101.543 164.879 C 97.347 168.550,96.400 169.625,94.788 172.543 C 92.469 176.740,92.123 182.925,93.996 186.707 C 96.215 191.188,97.647 193.054,100.159 194.734 C 100.828 195.182,101.924 195.998,102.596 196.549 C 103.268 197.100,104.110 197.768,104.468 198.034 C 105.076 198.486,105.019 198.520,103.574 198.568 C 101.600 198.633,101.484 198.652,101.191 198.944 C 101.057 199.078,100.469 199.188,99.884 199.188 C 99.299 199.188,98.741 199.315,98.645 199.470 C 98.549 199.625,97.854 199.851,97.099 199.972 C 96.344 200.092,95.556 200.333,95.347 200.507 C 95.064 200.741,94.917 200.174,94.773 198.299 C 94.430 193.816,94.094 192.958,91.822 190.762 L 90.669 189.647 87.658 189.716 C 84.541 189.786,83.067 189.954,81.397 190.427 C 80.861 190.579,79.545 190.950,78.473 191.251 C 75.969 191.954,72.080 193.777,70.097 195.178 C 68.826 196.076,68.511 196.183,68.354 195.774 C 67.977 194.793,68.675 186.947,69.495 182.941 C 69.659 182.136,69.964 180.601,70.173 179.529 C 70.577 177.452,71.086 175.622,71.486 174.805 C 71.621 174.530,71.840 173.658,71.974 172.868 C 72.108 172.077,72.345 171.169,72.502 170.849 C 72.658 170.530,72.933 169.978,73.111 169.623 C 73.290 169.268,73.436 168.790,73.436 168.562 C 73.436 168.333,73.729 167.600,74.087 166.933 C 74.444 166.266,74.743 165.649,74.751 165.563 C 74.775 165.285,75.717 162.975,76.044 162.393 C 76.218 162.082,76.361 161.607,76.361 161.337 C 76.361 161.066,76.507 160.845,76.686 160.845 C 76.864 160.845,77.011 160.643,77.011 160.396 C 77.011 160.149,77.815 158.358,78.797 156.416 C 79.780 154.473,80.584 152.713,80.585 152.505 C 80.585 152.296,80.709 152.077,80.861 152.017 C 81.151 151.904,82.349 149.951,83.570 147.604 C 83.966 146.844,84.406 146.223,84.549 146.223 C 84.692 146.223,84.809 146.015,84.809 145.762 C 84.809 145.509,84.919 145.253,85.053 145.194 C 85.187 145.134,85.735 144.219,86.271 143.161 C 86.807 142.102,87.395 141.079,87.576 140.886 C 87.895 140.549,89.609 138.247,93.201 133.334 C 94.867 131.055,98.966 126.941,101.329 125.177 C 101.983 124.689,102.810 124.021,103.168 123.694 C 103.965 122.963,110.112 118.603,110.344 118.603 C 110.436 118.603,111.391 118.018,112.468 117.303 C 113.544 116.588,114.497 116.003,114.586 116.003 C 114.674 116.003,115.212 115.652,115.781 115.224 C 116.350 114.795,117.766 113.956,118.928 113.360 C 120.089 112.764,121.113 112.193,121.202 112.091 C 121.292 111.989,122.023 111.584,122.827 111.190 C 123.631 110.797,125.020 110.045,125.914 109.520 C 126.807 108.994,128.197 108.235,129.001 107.834 C 130.726 106.972,131.005 106.639,130.614 105.909 C 130.454 105.610,130.395 105.294,130.483 105.206 C 130.657 105.033,128.860 99.305,128.342 98.380 C 128.168 98.069,128.026 97.521,128.026 97.161 C 128.026 96.801,127.898 96.507,127.742 96.507 C 127.585 96.507,127.366 96.049,127.254 95.489 C 126.844 93.438,122.052 84.667,120.887 83.834 C 120.762 83.745,120.526 83.434,120.362 83.143 C 119.524 81.650,115.117 76.956,113.079 75.385 C 112.275 74.766,111.470 74.098,111.292 73.902 C 110.392 72.916,104.400 69.537,103.551 69.537 C 103.050 69.537,99.431 73.776,99.431 74.363 C 99.431 74.568,99.285 74.736,99.106 74.736 C 98.928 74.736,98.781 74.955,98.781 75.223 C 98.781 75.491,98.667 75.711,98.528 75.711 C 98.388 75.711,98.106 76.113,97.901 76.604 C 97.695 77.096,97.307 77.864,97.038 78.310 C 96.280 79.571,95.532 81.289,95.532 81.772 C 95.532 82.013,95.386 82.210,95.207 82.210 C 95.028 82.210,94.882 82.471,94.882 82.791 C 94.882 83.110,94.606 83.914,94.268 84.577 C 93.711 85.669,93.231 87.042,93.107 87.896 C 93.008 88.582,92.545 90.199,92.269 90.820 C 92.110 91.178,91.917 91.909,91.839 92.445 C 91.761 92.981,91.749 92.543,91.812 91.470 C 92.008 88.153,93.132 81.125,93.617 80.183 C 93.777 79.873,93.914 79.361,93.922 79.046 C 93.929 78.731,94.155 77.888,94.422 77.173 C 94.689 76.458,94.965 75.627,95.035 75.326 C 95.105 75.025,95.304 74.513,95.477 74.188 C 95.651 73.864,95.797 73.526,95.802 73.436 C 95.807 73.347,95.984 72.835,96.194 72.299 C 97.049 70.122,98.196 67.065,98.359 66.531 C 98.454 66.219,98.662 65.963,98.819 65.963 C 98.977 65.963,99.106 65.741,99.106 65.471 C 99.106 65.200,99.248 64.725,99.420 64.415 C 99.592 64.104,100.045 63.133,100.426 62.256 C 101.029 60.869,102.677 58.126,104.682 55.172 C 105.011 54.687,105.280 54.139,105.280 53.953 C 105.280 53.767,105.403 53.615,105.553 53.615 C 105.703 53.615,105.982 53.286,106.172 52.884 C 106.705 51.760,109.409 48.414,109.782 48.418 C 109.897 48.419,110.357 48.607,110.804 48.837 M166.694 160.052 C 168.363 160.904,170.240 162.896,170.473 164.063 C 170.585 164.624,170.804 165.161,170.960 165.257 C 171.357 165.503,171.317 169.618,170.918 169.618 C 170.739 169.618,170.593 169.973,170.593 170.406 C 170.593 171.777,168.717 173.744,166.369 174.835 C 165.565 175.208,164.653 175.649,164.342 175.815 C 163.514 176.258,162.022 176.183,160.987 175.646 C 160.487 175.387,159.959 175.250,159.812 175.340 C 159.665 175.431,159.545 175.351,159.545 175.161 C 159.545 174.972,159.319 174.817,159.042 174.817 C 158.403 174.817,155.321 171.757,155.321 171.123 C 155.321 170.861,155.156 170.592,154.953 170.525 C 154.013 170.211,154.752 163.119,155.725 163.119 C 155.860 163.119,155.971 162.969,155.971 162.785 C 155.971 162.083,158.905 159.872,160.425 159.428 C 161.606 159.082,165.567 159.477,166.694 160.052 M241.109 159.911 C 247.081 163.174,247.363 171.922,241.582 174.556 C 241.141 174.757,240.780 175.053,240.780 175.213 C 240.780 175.374,240.660 175.431,240.513 175.340 C 240.366 175.250,239.838 175.387,239.338 175.646 C 236.964 176.878,232.207 174.817,230.254 171.710 C 227.964 168.067,230.212 160.195,233.543 160.195 C 233.770 160.195,233.956 160.058,233.956 159.892 C 233.956 159.142,239.731 159.158,241.109 159.911 M186.857 199.032 C 185.485 199.512,183.266 201.327,183.266 201.968 C 183.266 202.226,183.155 202.437,183.020 202.437 C 182.676 202.437,181.966 204.830,181.966 205.990 C 181.966 208.096,191.113 218.734,196.101 222.429 C 196.816 222.959,197.493 223.521,197.607 223.678 C 197.721 223.835,198.744 223.965,199.882 223.967 C 202.535 223.971,204.192 223.061,206.986 220.063 C 208.110 218.858,210.654 216.180,212.638 214.113 C 218.063 208.462,217.816 208.808,217.973 206.643 C 218.270 202.524,216.404 199.753,212.779 198.933 C 210.290 198.370,188.509 198.453,186.857 199.032 " stroke="none" fill="#556080" fill-rule="evenodd"></path><path id="path2" d="" stroke="none" fill="#ff0000" fill-rule="evenodd"></path><path id="path3" d="M301.326 278.116 C 298.639 278.377,298.753 277.901,299.460 285.899 L 300.087 292.996 299.039 292.558 C 293.803 290.371,289.471 294.876,288.965 303.037 C 288.704 307.235,289.949 314.499,291.179 315.963 C 291.347 316.164,292.065 317.155,292.773 318.165 C 295.239 321.683,300.457 322.440,302.150 319.527 C 302.473 318.972,302.499 318.982,302.508 319.659 C 302.519 320.475,303.154 320.562,306.336 320.179 C 308.447 319.926,308.407 321.612,306.735 303.695 C 305.361 288.968,305.329 288.672,305.030 287.896 C 304.926 287.628,304.666 285.252,304.450 282.616 C 304.193 279.459,303.935 277.840,303.695 277.872 C 303.495 277.900,302.429 278.009,301.326 278.116 M111.456 279.806 C 111.457 280.056,110.791 289.525,109.975 300.848 C 109.160 312.171,108.537 321.473,108.592 321.518 C 108.994 321.850,113.731 321.910,113.747 321.583 C 113.848 319.494,115.333 301.795,115.470 301.056 C 115.765 299.457,117.083 280.094,116.909 279.920 C 116.459 279.470,111.454 279.365,111.456 279.806 M222.015 282.607 L 220.959 282.738 220.966 286.373 C 220.978 292.572,221.893 324.682,222.061 324.850 C 222.149 324.938,223.419 324.904,224.884 324.774 L 227.547 324.539 227.339 318.646 C 226.795 303.195,226.986 301.675,229.558 301.030 C 232.636 300.257,233.113 303.053,233.291 322.908 L 233.306 324.614 236.068 324.614 L 238.830 324.614 238.810 321.771 C 238.749 313.230,238.214 301.606,237.834 300.569 C 236.030 295.642,230.690 294.054,227.736 297.566 L 226.907 298.551 226.695 293.172 C 226.578 290.213,226.483 286.573,226.483 285.082 L 226.483 282.372 224.777 282.424 C 223.838 282.453,222.595 282.535,222.015 282.607 M181.206 290.739 C 181.089 295.162,180.992 304.667,180.992 311.860 L 180.991 324.939 183.753 324.939 L 186.515 324.939 186.515 317.889 L 186.515 310.838 187.965 313.583 C 188.763 315.093,190.405 318.266,191.615 320.634 L 193.815 324.939 196.826 324.939 C 198.482 324.939,199.838 324.841,199.838 324.722 C 199.838 324.399,196.868 318.954,196.589 318.765 C 196.457 318.676,195.946 317.799,195.453 316.816 C 194.961 315.833,193.991 314.052,193.299 312.860 C 192.606 311.667,192.039 310.559,192.039 310.398 C 192.039 310.015,195.075 304.461,196.496 302.245 C 199.937 296.879,199.944 296.668,196.669 296.674 C 193.510 296.681,193.829 296.410,191.320 301.219 C 190.154 303.452,188.595 306.377,187.854 307.717 L 186.509 310.154 186.725 296.426 L 186.940 282.697 184.180 282.697 L 181.420 282.697 181.206 290.739 M95.695 291.904 C 90.767 294.147,90.400 300.079,94.742 307.290 C 98.749 313.944,96.572 318.523,91.689 313.709 C 89.927 311.972,90.040 311.887,89.678 315.236 L 89.384 317.953 90.646 319.113 C 95.487 323.560,102.533 320.065,102.510 313.227 C 102.502 310.848,102.432 310.635,100.120 305.916 C 96.626 298.788,96.446 298.192,97.423 296.986 C 98.162 296.073,99.809 296.490,101.569 298.035 C 102.942 299.240,103.161 298.903,103.165 295.578 L 103.168 293.350 101.579 292.514 C 99.708 291.530,97.107 291.260,95.695 291.904 M271.056 294.373 C 269.427 294.976,267.259 296.556,266.567 297.644 C 266.153 298.296,266.413 303.818,266.858 303.818 C 267.046 303.818,267.720 303.210,268.356 302.467 C 271.374 298.941,275.440 298.161,276.016 300.998 C 276.556 303.656,276.447 304.698,275.574 305.213 C 274.748 305.701,271.411 308.278,269.679 309.764 C 265.293 313.529,266.254 321.834,271.247 323.330 C 273.236 323.926,275.006 323.329,276.740 321.478 C 277.967 320.168,278.113 320.094,278.303 320.690 C 279.536 324.578,286.333 322.481,285.781 318.383 C 285.467 316.058,285.372 315.971,284.289 317.009 C 282.950 318.293,282.953 318.306,282.286 308.763 C 281.953 303.988,281.544 299.555,281.377 298.912 C 280.321 294.839,275.513 292.725,271.056 294.373 M120.931 297.425 C 118.156 301.709,115.028 307.044,115.028 307.494 C 115.028 308.301,121.070 322.094,121.527 322.330 C 122.387 322.775,127.051 322.935,127.051 322.520 C 127.051 321.974,124.170 315.589,122.002 311.332 C 120.475 308.333,120.191 307.536,120.494 307.108 C 120.701 306.818,121.107 306.141,121.398 305.605 C 121.688 305.069,122.251 304.265,122.648 303.818 C 123.849 302.467,128.458 295.044,128.235 294.821 C 128.121 294.706,126.883 294.546,125.485 294.465 L 122.944 294.318 120.931 297.425 M133.108 297.400 C 132.658 302.885,132.184 316.558,132.387 318.183 C 132.997 323.070,137.979 325.469,141.807 322.720 L 143.298 321.649 143.298 322.602 C 143.298 323.650,144.149 323.953,147.116 323.961 L 148.497 323.964 148.530 322.583 C 148.586 320.158,149.064 313.114,149.241 312.104 C 149.423 311.063,149.914 301.053,149.942 297.807 L 149.959 295.857 147.360 295.662 C 145.930 295.555,144.722 295.496,144.675 295.531 C 144.579 295.602,143.633 313.411,143.627 315.272 C 143.619 317.763,140.071 320.085,138.662 318.522 C 137.757 317.517,137.722 316.455,138.256 305.981 C 138.864 294.061,139.081 295.045,135.844 295.045 L 133.301 295.045 133.108 297.400 M249.208 295.780 C 243.765 299.448,243.322 316.567,248.526 322.126 C 251.177 324.957,256.283 325.276,259.513 322.811 L 260.670 321.929 260.444 319.454 C 260.181 316.568,259.929 316.143,259.170 317.302 C 257.828 319.350,254.698 320.070,252.987 318.724 C 251.207 317.325,249.406 311.361,250.744 311.301 C 256.415 311.043,260.265 310.762,260.433 310.593 C 261.165 309.861,259.313 300.458,258.120 298.846 C 257.696 298.274,257.267 297.577,257.166 297.296 C 256.424 295.243,251.420 294.289,249.208 295.780 M157.480 298.375 C 157.375 299.671,157.207 305.191,157.106 310.642 C 157.006 316.093,156.842 321.393,156.741 322.421 L 156.557 324.289 159.304 324.289 L 162.050 324.289 162.288 314.163 L 162.525 304.036 163.506 302.815 C 165.212 300.692,167.061 300.451,168.011 302.227 C 168.265 302.701,168.301 306.056,168.134 313.755 L 167.898 324.614 170.656 324.614 L 173.414 324.614 173.627 317.059 C 174.063 301.640,173.960 300.348,172.115 298.110 C 169.872 295.388,166.527 295.249,163.807 297.764 L 162.707 298.781 162.907 297.715 C 163.155 296.397,162.410 296.019,159.562 296.019 L 157.672 296.019 157.480 298.375 M299.728 297.994 C 300.758 299.219,300.740 299.133,301.362 305.958 C 302.124 314.315,301.820 315.516,298.944 315.516 C 296.401 315.516,295.088 312.543,294.806 306.144 C 294.471 298.526,296.854 294.579,299.728 297.994 M253.401 300.739 C 254.098 301.625,254.972 305.702,254.647 306.549 C 254.491 306.956,253.954 307.067,252.163 307.067 L 249.878 307.067 249.886 305.524 C 249.909 301.042,251.710 298.590,253.401 300.739 M206.742 307.954 L 203.412 308.065 203.412 310.986 L 203.412 313.906 209.180 313.817 L 214.947 313.729 214.947 310.804 L 214.947 307.880 212.510 307.861 C 211.170 307.851,208.574 307.892,206.742 307.954 M276.694 316.138 C 275.475 318.463,274.088 319.002,272.972 317.584 C 271.529 315.749,272.460 312.587,275.184 310.065 L 276.686 308.675 276.910 311.987 C 277.080 314.500,277.028 315.501,276.694 316.138 " stroke="none" fill="#ed7161" fill-rule="evenodd"></path><path id="path4" d="" stroke="none" fill="#00ffff" fill-rule="evenodd"></path></g></svg>